# xmcd
#
# Track frame offsets:
#	151
#	20228
#	34108
#	53752
#	68242
#	88186
#	108975
#	118891
#	139088
#	162512
#	175569
#	197119
#
# Disc length: 2875 seconds
#
# Revision: 0
# Processed by: cddbd v1.4PL0 Copyright (c) Steve Scherf et al.
# Submitted via: dBpowerAMP V4.0
#
DISCID=aa0b390c
DTITLE=Jane Wright - Southern Songs and Ballads
DYEAR=2000
DGENRE=Blues
TTITLE0=Never Comin' Back Again
TTITLE1=Somebody Special
TTITLE2=Sugarmama
TTITLE3=How's About You
TTITLE4=Alabama Song
TTITLE5=Your Picture
TTITLE6=Along This Road
TTITLE7=Sad State Over You
TTITLE8=Long Time Comin' Now
TTITLE9=Miguel
TTITLE10=Beautiful
TTITLE11=What More Can I Say
EXTD=
EXTT0=
EXTT1=
EXTT2=
EXTT3=
EXTT4=
EXTT5=
EXTT6=
EXTT7=
EXTT8=
EXTT9=
EXTT10=
EXTT11=
PLAYORDER=
